<svg xmlns="http://www.w3.org/2000/svg" viewBox="0 0 497.274 497.274" width="512" height="512"><g fill="#FFF"><path d="M411.428 357.652H78.241L43.585 209.446C19.393 208.475 0 188.465 0 164.043c0-25.075 20.381-45.438 45.455-45.438s45.455 20.363 45.455 45.438c0 12.052-4.888 23.486-13.252 31.886 55.249 59.713 100.775 55.09 143.036-15.934-10.887-8.488-17.505-21.634-17.505-35.786 0-25.057 20.381-45.455 45.455-45.455s45.455 20.381 45.455 45.455c0 15.087-7.641 29.027-19.781 37.356 36.333 69.789 82.847 73.353 143.583 14.452a45.142 45.142 0 0 1-11.523-30.192c0-25.057 20.381-45.42 45.438-45.42s45.455 20.363 45.455 45.42c0 24.969-20.222 45.279-45.138 45.455l-40.705 146.372zM94.405 337.307h301.548l34.868-125.479c-73.812 70.653-137.09 59.06-179.281-30.28l-3.829-8.099-4.358 7.923c-49.32 89.605-111.803 100.757-178.169 31.039l29.221 124.896zm347.92-147.801l4.306.882c15.811 3.335 30.245-8.999 30.245-24.545 0-13.817-11.24-25.075-25.075-25.075s-25.075 11.258-25.075 25.075c0 8.523 4.323 16.411 11.593 21.069l4.006 2.594zm-396.87-50.555c-13.834 0-25.075 11.258-25.075 25.075 0 13.834 11.24 25.092 25.075 25.092 1.482 0 2.894-.212 4.306-.459l4.111-.723 3.9-2.223c7.994-4.553 12.758-12.67 12.758-21.687 0-13.817-11.258-25.075-25.075-25.075zm203.156-19.834c-13.834 0-25.075 11.258-25.075 25.092 0 9.899 5.894 18.899 14.999 22.922l9.123 4.023 9.564-3.529c9.846-3.617 16.463-13.023 16.463-23.416 0-13.834-11.24-25.092-25.074-25.092zM399.711 398.52H89.976c-5.647 0-10.252-4.606-10.252-10.252 0-5.647 4.606-10.252 10.252-10.252h309.735c5.647 0 10.252 4.606 10.252 10.252 0 5.629-4.605 10.252-10.252 10.252z"/></g></svg>