<svg xmlns="http://www.w3.org/2000/svg" xmlns:xlink="http://www.w3.org/1999/xlink" width="0" height="0" style="position:absolute">
	
		<symbol id="svg--arrow-right" viewBox="0 0 31.49 31.49">
			<path d="M21.205 5.007a1.112 1.112 0 0 0-1.587 0 1.12 1.12 0 0 0 0 1.571l8.047 8.047H1.111A1.106 1.106 0 0 0 0 15.737c0 .619.492 1.127 1.111 1.127h26.554l-8.047 8.032c-.429.444-.429 1.159 0 1.587a1.112 1.112 0 0 0 1.587 0l9.952-9.952a1.093 1.093 0 0 0 0-1.571l-9.952-9.953z"></path>
		</symbol>
	
		<symbol id="svg--button-left" viewBox="0 0 492 492">
			<path d="M198.608 246.104L382.664 62.04c5.068-5.056 7.856-11.816 7.856-19.024 0-7.212-2.788-13.968-7.856-19.032l-16.128-16.12C361.476 2.792 354.712 0 347.504 0s-13.964 2.792-19.028 7.864L109.328 227.008c-5.084 5.08-7.868 11.868-7.848 19.084-.02 7.248 2.76 14.028 7.848 19.112l218.944 218.932c5.064 5.072 11.82 7.864 19.032 7.864 7.208 0 13.964-2.792 19.032-7.864l16.124-16.12c10.492-10.492 10.492-27.572 0-38.06L198.608 246.104z"></path>
		</symbol>
	
		<symbol id="svg--button-right" viewBox="0 0 492.004 492.004">
			<path d="M382.678 226.804L163.73 7.86C158.666 2.792 151.906 0 144.698 0s-13.968 2.792-19.032 7.86l-16.124 16.12c-10.492 10.504-10.492 27.576 0 38.064L293.398 245.9l-184.06 184.06c-5.064 5.068-7.86 11.824-7.86 19.028 0 7.212 2.796 13.968 7.86 19.04l16.124 16.116c5.068 5.068 11.824 7.86 19.032 7.86s13.968-2.792 19.032-7.86L382.678 265c5.076-5.084 7.864-11.872 7.848-19.088.016-7.244-2.772-14.028-7.848-19.108z"></path>
		</symbol>
	
		<symbol id="svg--close-button" viewBox="0 0 47.971 47.971">
			<path d="M28.228 23.986L47.092 5.122a2.998 2.998 0 0 0 0-4.242 2.998 2.998 0 0 0-4.242 0L23.986 19.744 5.121.88a2.998 2.998 0 0 0-4.242 0 2.998 2.998 0 0 0 0 4.242l18.865 18.864L.879 42.85a2.998 2.998 0 1 0 4.242 4.241l18.865-18.864L42.85 47.091c.586.586 1.354.879 2.121.879s1.535-.293 2.121-.879a2.998 2.998 0 0 0 0-4.242L28.228 23.986z"></path>
		</symbol>
	
		<symbol id="svg--discount" viewBox="0 0 512.061 512.061">
			<path d="M510.991 314.59l-22.496-58.56 22.464-58.592c2.496-6.464.512-13.824-4.864-18.176l-48.736-39.488-9.856-61.984a16.033 16.033 0 0 0-13.28-13.28l-61.984-9.856-39.488-48.736c-4.352-5.376-11.68-7.328-18.176-4.864l-58.56 22.496-58.592-22.464a15.91 15.91 0 0 0-18.144 4.864l-39.488 48.736-61.984 9.856a16.033 16.033 0 0 0-13.28 13.28l-9.856 61.984-48.736 39.488c-5.376 4.352-7.328 11.68-4.864 18.144l22.464 58.592-22.464 58.592c-2.464 6.464-.512 13.792 4.864 18.144l48.736 39.488 9.856 61.984a16.033 16.033 0 0 0 13.28 13.28l61.984 9.856 39.488 48.736c4.384 5.408 11.712 7.392 18.176 4.864l58.56-22.464 58.592 22.464a16.195 16.195 0 0 0 5.728 1.056c4.704 0 9.344-2.08 12.448-5.92l39.488-48.736 61.984-9.856a16.033 16.033 0 0 0 13.28-13.28l9.856-61.984 48.736-39.488c5.376-4.352 7.328-11.712 4.864-18.176zm-54.624-52.832l20.512 53.44-44.512 36.032c-3.072 2.496-5.12 6.016-5.728 9.92l-8.992 56.544-56.544 8.992c-3.904.608-7.424 2.656-9.92 5.728l-35.968 44.512-53.44-20.512c-1.856-.672-3.808-1.056-5.76-1.056s-3.904.352-5.728 1.056l-53.44 20.512-36.032-44.512c-2.496-3.072-6.016-5.12-9.92-5.728l-56.544-8.992-8.992-56.544c-.608-3.904-2.656-7.424-5.728-9.92l-44.512-36 20.512-53.44c1.408-3.712 1.408-7.808-.032-11.488l-20.48-53.472 44.512-36.032c3.072-2.496 5.12-6.016 5.728-9.92l8.992-56.544 56.544-8.992c3.904-.608 7.424-2.656 9.92-5.728l36-44.48 53.44 20.512a16.063 16.063 0 0 0 11.456 0l53.44-20.512 36.032 44.512c2.496 3.072 6.016 5.12 9.92 5.728l56.544 8.992 8.992 56.544c.608 3.904 2.656 7.424 5.728 9.92l44.512 36.032-20.512 53.44a16.063 16.063 0 0 0 0 11.456z"></path><path d="M208.015 128.03c-26.464 0-48 21.536-48 48s21.536 48 48 48 48-21.536 48-48-21.536-48-48-48zm0 64c-8.832 0-16-7.168-16-16s7.168-16 16-16 16 7.168 16 16-7.168 16-16 16zm96 96c-26.464 0-48 21.536-48 48s21.536 48 48 48 48-21.536 48-48-21.536-48-48-48zm0 64c-8.832 0-16-7.168-16-16s7.168-16 16-16 16 7.168 16 16-7.168 16-16 16zm41.312-220.992c-7.168-5.12-17.184-3.456-22.304 3.712l-160 224c-5.152 7.168-3.488 17.184 3.68 22.304a15.943 15.943 0 0 0 9.312 2.976c4.992 0 9.92-2.336 13.024-6.688l160-224c5.152-7.2 3.456-17.184-3.712-22.304z"></path>
		</symbol>
	
		<symbol id="svg--facebook" viewBox="0 0 96.124 96.123">
			<path d="M72.089.02L59.624 0C45.62 0 36.57 9.285 36.57 23.656v10.907H24.037a1.96 1.96 0 0 0-1.96 1.961v15.803a1.96 1.96 0 0 0 1.96 1.96H36.57v39.876a1.96 1.96 0 0 0 1.96 1.96h16.352a1.96 1.96 0 0 0 1.96-1.96V54.287h14.654a1.96 1.96 0 0 0 1.96-1.96l.006-15.803a1.963 1.963 0 0 0-1.961-1.961H56.842v-9.246c0-4.444 1.059-6.7 6.848-6.7l8.397-.003a1.96 1.96 0 0 0 1.959-1.96V1.98A1.96 1.96 0 0 0 72.089.02z"></path>
		</symbol>
	
		<symbol id="svg--google-plus" viewBox="0 0 96.828 96.827">
			<path d="M62.617 0H39.525c-10.29 0-17.413 2.256-23.824 7.552-5.042 4.35-8.051 10.672-8.051 16.912 0 9.614 7.33 19.831 20.913 19.831 1.306 0 2.752-.134 4.028-.253l-.188.457c-.546 1.308-1.063 2.542-1.063 4.468 0 3.75 1.809 6.063 3.558 8.298l.22.283-.391.027c-5.609.384-16.049 1.1-23.675 5.787-9.007 5.355-9.707 13.145-9.707 15.404 0 8.988 8.376 18.06 27.09 18.06 21.76 0 33.146-12.005 33.146-23.863.002-8.771-5.141-13.101-10.6-17.698l-4.605-3.582c-1.423-1.179-3.195-2.646-3.195-5.364 0-2.672 1.772-4.436 3.336-5.992l.163-.165c4.973-3.917 10.609-8.358 10.609-17.964 0-9.658-6.035-14.649-8.937-17.048h7.663a.488.488 0 0 0 .266-.077l6.601-4.15A.5.5 0 0 0 62.617 0zM34.614 91.535c-13.264 0-22.176-6.195-22.176-15.416 0-6.021 3.645-10.396 10.824-12.997 5.749-1.935 13.17-2.031 13.244-2.031 1.257 0 1.889 0 2.893.126 9.281 6.605 13.743 10.073 13.743 16.678-.001 8.414-7.101 13.64-18.528 13.64zm-.125-50.779c-11.132 0-15.752-14.633-15.752-22.468 0-3.984.906-7.042 2.77-9.351 2.023-2.531 5.487-4.166 8.825-4.166 10.221 0 15.873 13.738 15.873 23.233 0 1.498 0 6.055-3.148 9.22-2.117 2.113-5.56 3.532-8.568 3.532zm60.493 4.467H82.814V33.098a.5.5 0 0 0-.5-.5H77.08a.5.5 0 0 0-.5.5v12.125H64.473a.5.5 0 0 0-.5.5v5.304a.5.5 0 0 0 .5.5H76.58V63.73a.5.5 0 0 0 .5.5h5.234c.275 0 .5-.225.5-.5V51.525h12.168a.5.5 0 0 0 .5-.5v-5.302c0-.277-.223-.5-.5-.5z"></path>
		</symbol>
	
		<symbol id="svg--king" viewBox="0 0 497.274 497.274">
			<path d="M411.428 357.652H78.241L43.585 209.446C19.393 208.475 0 188.465 0 164.043c0-25.075 20.381-45.438 45.455-45.438s45.455 20.363 45.455 45.438c0 12.052-4.888 23.486-13.252 31.886 55.249 59.713 100.775 55.09 143.036-15.934-10.887-8.488-17.505-21.634-17.505-35.786 0-25.057 20.381-45.455 45.455-45.455s45.455 20.381 45.455 45.455c0 15.087-7.641 29.027-19.781 37.356 36.333 69.789 82.847 73.353 143.583 14.452a45.142 45.142 0 0 1-11.523-30.192c0-25.057 20.381-45.42 45.438-45.42s45.455 20.363 45.455 45.42c0 24.969-20.222 45.279-45.138 45.455l-40.705 146.372zM94.405 337.307h301.548l34.868-125.479c-73.812 70.653-137.09 59.06-179.281-30.28l-3.829-8.099-4.358 7.923c-49.32 89.605-111.803 100.757-178.169 31.039l29.221 124.896zm347.92-147.801l4.306.882c15.811 3.335 30.245-8.999 30.245-24.545 0-13.817-11.24-25.075-25.075-25.075s-25.075 11.258-25.075 25.075c0 8.523 4.323 16.411 11.593 21.069l4.006 2.594zm-396.87-50.555c-13.834 0-25.075 11.258-25.075 25.075 0 13.834 11.24 25.092 25.075 25.092 1.482 0 2.894-.212 4.306-.459l4.111-.723 3.9-2.223c7.994-4.553 12.758-12.67 12.758-21.687 0-13.817-11.258-25.075-25.075-25.075zm203.156-19.834c-13.834 0-25.075 11.258-25.075 25.092 0 9.899 5.894 18.899 14.999 22.922l9.123 4.023 9.564-3.529c9.846-3.617 16.463-13.023 16.463-23.416 0-13.834-11.24-25.092-25.074-25.092zm151.1 279.403H89.976c-5.647 0-10.252-4.606-10.252-10.252 0-5.647 4.606-10.252 10.252-10.252h309.735c5.647 0 10.252 4.606 10.252 10.252 0 5.629-4.605 10.252-10.252 10.252z"></path>
		</symbol>
	
		<symbol id="svg--linkedin" viewBox="0 0 430.117 430.117">
			<path d="M430.117 261.543V420.56h-92.188V272.193c0-37.271-13.334-62.707-46.703-62.707-25.473 0-40.632 17.142-47.301 33.724-2.432 5.928-3.058 14.179-3.058 22.477V420.56h-92.219s1.242-251.285 0-277.32h92.21v39.309c-.187.294-.43.611-.606.896h.606v-.896c12.251-18.869 34.13-45.824 83.102-45.824 60.673-.001 106.157 39.636 106.157 124.818zM52.183 9.558C20.635 9.558 0 30.251 0 57.463c0 26.619 20.038 47.94 50.959 47.94h.616c32.159 0 52.159-21.317 52.159-47.94-.606-27.212-20-47.905-51.551-47.905zM5.477 420.56h92.184V143.24H5.477v277.32z"></path>
		</symbol>
	
		<symbol id="svg--list" viewBox="0 0 60.123 60.123">
			<path d="M57.124 51.893H16.92a3 3 0 1 1 0-6h40.203a3 3 0 0 1 .001 6zm0-18.831H16.92a3 3 0 1 1 0-6h40.203a3 3 0 0 1 .001 6zm0-18.831H16.92a3 3 0 1 1 0-6h40.203a3 3 0 0 1 .001 6z"></path><circle cx="4.029" cy="11.463" r="4.029"></circle><circle cx="4.029" cy="30.062" r="4.029"></circle><circle cx="4.029" cy="48.661" r="4.029"></circle>
		</symbol>
	
		<symbol id="svg--menu-button" viewBox="0 0 512 512">
			<path d="M491.318 235.318H20.682C9.26 235.318 0 244.577 0 256s9.26 20.682 20.682 20.682h470.636c11.423 0 20.682-9.259 20.682-20.682 0-11.422-9.259-20.682-20.682-20.682zm0-156.879H20.682C9.26 78.439 0 87.699 0 99.121c0 11.422 9.26 20.682 20.682 20.682h470.636c11.423 0 20.682-9.26 20.682-20.682 0-11.422-9.259-20.682-20.682-20.682zm0 313.758H20.682C9.26 392.197 0 401.456 0 412.879s9.26 20.682 20.682 20.682h470.636c11.423 0 20.682-9.259 20.682-20.682s-9.259-20.682-20.682-20.682z"></path>
		</symbol>
	
		<symbol id="svg--pinterest" viewBox="0 0 310.05 310.05">
			<path d="M245.265 31.772C223.923 11.284 194.388 0 162.101 0c-49.32 0-79.654 20.217-96.416 37.176-20.658 20.9-32.504 48.651-32.504 76.139 0 34.513 14.436 61.003 38.611 70.858 1.623.665 3.256 1 4.857 1 5.1 0 9.141-3.337 10.541-8.69.816-3.071 2.707-10.647 3.529-13.936 1.76-6.495.338-9.619-3.5-14.142-6.992-8.273-10.248-18.056-10.248-30.788 0-37.818 28.16-78.011 80.352-78.011 41.412 0 67.137 23.537 67.137 61.425 0 23.909-5.15 46.051-14.504 62.35-6.5 11.325-17.93 24.825-35.477 24.825-7.588 0-14.404-3.117-18.705-8.551-4.063-5.137-5.402-11.773-3.768-18.689 1.846-7.814 4.363-15.965 6.799-23.845 4.443-14.392 8.643-27.985 8.643-38.83 0-18.55-11.404-31.014-28.375-31.014-21.568 0-38.465 21.906-38.465 49.871 0 13.715 3.645 23.973 5.295 27.912-2.717 11.512-18.865 79.953-21.928 92.859-1.771 7.534-12.44 67.039 5.219 71.784 19.841 5.331 37.576-52.623 39.381-59.172 1.463-5.326 6.582-25.465 9.719-37.845 9.578 9.226 25 15.463 40.006 15.463 28.289 0 53.73-12.73 71.637-35.843 17.367-22.418 26.932-53.664 26.932-87.978 0-26.826-11.52-53.272-31.604-72.556z"></path>
		</symbol>
	
		<symbol id="svg--row" viewBox="0 0 27.709 27.709">
			<path d="M9.84.078h7.655V7.73H9.84V.078zm0 9.84h7.655v7.652H9.84V9.918zm-9.84 0h7.652v7.652H0V9.918zm0-9.84h7.652V7.73H0V.078zm.003 19.9h7.649v7.654H.003v-7.654zm9.84 0h7.652v7.654H9.843v-7.654zM20.054.078h7.655V7.73h-7.655V.078zm0 9.84h7.655v7.652h-7.655V9.918zm0 10.06h7.655v7.654h-7.655v-7.654z"></path>
		</symbol>
	
		<symbol id="svg--search" viewBox="0 0 56.966 56.966">
			<path d="M55.146 51.887L41.588 37.786A22.926 22.926 0 0 0 46.984 23c0-12.682-10.318-23-23-23s-23 10.318-23 23 10.318 23 23 23c4.761 0 9.298-1.436 13.177-4.162l13.661 14.208c.571.593 1.339.92 2.162.92.779 0 1.518-.297 2.079-.837a3.004 3.004 0 0 0 .083-4.242zM23.984 6c9.374 0 17 7.626 17 17s-7.626 17-17 17-17-7.626-17-17 7.626-17 17-17z"></path>
		</symbol>
	
		<symbol id="svg--shop-cart" viewBox="0 0 446.853 446.853">
			<path d="M444.274 93.36a14.332 14.332 0 0 0-11.145-6.123L155.942 75.289c-7.953-.348-14.599 5.792-14.939 13.708-.338 7.913 5.792 14.599 13.707 14.939l258.421 11.14L362.32 273.61H136.205L95.354 51.179a14.336 14.336 0 0 0-8.861-10.753L19.586 14.141c-7.374-2.887-15.695.735-18.591 8.1-2.891 7.369.73 15.695 8.1 18.591l59.491 23.371 41.572 226.335a14.341 14.341 0 0 0 14.104 11.746h6.896l-15.747 43.74a11.927 11.927 0 0 0 1.468 10.916 11.947 11.947 0 0 0 9.772 5.078h11.045c-6.844 7.617-11.045 17.646-11.045 28.675 0 23.718 19.299 43.012 43.012 43.012s43.012-19.294 43.012-43.012c0-11.028-4.201-21.058-11.044-28.675h93.777c-6.847 7.617-11.047 17.646-11.047 28.675 0 23.718 19.294 43.012 43.012 43.012 23.719 0 43.012-19.294 43.012-43.012 0-11.028-4.2-21.058-11.042-28.675h13.432c6.6 0 11.948-5.349 11.948-11.947 0-6.6-5.349-11.948-11.948-11.948H143.651l12.902-35.843h216.221a14.332 14.332 0 0 0 13.651-9.96l59.739-186.387a14.306 14.306 0 0 0-1.89-12.573zm-274.61 316.454c-10.543 0-19.117-8.573-19.117-19.116s8.574-19.117 19.117-19.117 19.116 8.574 19.116 19.117-8.573 19.116-19.116 19.116zm157.709 0c-10.543 0-19.116-8.573-19.116-19.116s8.573-19.117 19.116-19.117 19.116 8.574 19.116 19.117-8.573 19.116-19.116 19.116z"></path>
		</symbol>
	
		<symbol id="svg--truck" viewBox="0 0 512.853 512.853">
			<path d="M505.173 194.133l-74.24-81.92c-5.973-5.973-13.653-9.387-21.333-9.387h-85.333v-17.92c0-18.773-14.507-33.28-32.427-33.28H33.28C14.507 51.627 0 66.133 0 84.907V380.16c0 16.213 13.653 29.867 29.867 29.867H43.27c4.075 29.155 28.753 51.2 59.131 51.2s55.056-22.045 59.131-51.2H350.47c4.075 29.155 28.753 51.2 59.131 51.2s55.056-22.045 59.131-51.2h44.121V213.76c0-7.68-2.56-14.507-7.68-19.627zm-13.653 11.094c2.56 1.707 3.413 5.12 3.413 7.68v26.453h-128v-85.333h77.653l46.934 51.2zm-474.453 25.6h119.467c5.12 0 8.533-3.413 8.533-8.533s-3.413-8.533-8.533-8.533H17.067v-25.6H102.4c5.12 0 8.533-3.413 8.533-8.533 0-5.12-3.413-8.533-8.533-8.533H17.067V84.907c0-9.387 6.827-16.213 16.213-16.213h257.707c9.387 0 16.213 7.68 16.213 16.213V290.56H17.067v-59.733zM102.4 444.16c-23.893 0-42.667-18.773-42.667-42.667 0-23.893 18.773-42.667 42.667-42.667 23.893 0 42.667 18.773 42.667 42.667 0 23.894-18.774 42.667-42.667 42.667zm204.8-51.2H161.531c-3.821-27.339-25.761-48.416-53.528-50.936-.203-.019-.409-.029-.613-.046-.699-.056-1.397-.114-2.103-.147-.957-.046-1.919-.072-2.887-.072s-1.93.026-2.887.072c-.706.033-1.404.09-2.103.147-.204.017-.41.027-.613.046-27.767 2.52-49.707 23.597-53.528 50.936H29.867c-6.827 0-12.8-5.973-12.8-12.8v-72.533H307.2v85.333zm102.4 51.2c-23.893 0-42.667-18.773-42.667-42.667 0-23.893 18.773-42.667 42.667-42.667 23.893 0 42.667 18.773 42.667 42.667 0 23.894-18.774 42.667-42.667 42.667zm59.131-51.2c-3.821-27.339-25.761-48.416-53.528-50.936-.203-.019-.409-.029-.613-.046-.699-.056-1.397-.114-2.103-.147-.957-.046-1.919-.072-2.887-.072s-1.93.026-2.887.072c-.706.033-1.404.09-2.103.147-.204.017-.41.027-.613.046-27.767 2.52-49.707 23.597-53.528 50.936h-26.203V119.893H409.6c2.56 0 5.973 1.707 8.533 3.413l12.231 13.653h-65.991c-7.68 0-14.507 6.827-14.507 14.507v90.453c0 7.68 6.827 14.507 14.507 14.507h130.56v42.667h-42.667c-5.12 0-8.533 3.413-8.533 8.533s3.413 8.533 8.533 8.533h42.667v76.8h-26.202z"></path><path d="M102.4 384.427c-9.387 0-17.067 7.68-17.067 17.067s7.68 17.067 17.067 17.067 17.067-7.68 17.067-17.067-7.68-17.067-17.067-17.067zm307.2 0c-9.387 0-17.067 7.68-17.067 17.067s7.68 17.067 17.067 17.067 17.067-7.68 17.067-17.067-7.68-17.067-17.067-17.067z"></path>
		</symbol>
	
		<symbol id="svg--twitter" viewBox="0 0 512 512">
			<path d="M512 97.248c-19.04 8.352-39.328 13.888-60.48 16.576 21.76-12.992 38.368-33.408 46.176-58.016-20.288 12.096-42.688 20.64-66.56 25.408C411.872 60.704 384.416 48 354.464 48c-58.112 0-104.896 47.168-104.896 104.992 0 8.32.704 16.32 2.432 23.936-87.264-4.256-164.48-46.08-216.352-109.792-9.056 15.712-14.368 33.696-14.368 53.056 0 36.352 18.72 68.576 46.624 87.232-16.864-.32-33.408-5.216-47.424-12.928v1.152c0 51.008 36.384 93.376 84.096 103.136-8.544 2.336-17.856 3.456-27.52 3.456-6.72 0-13.504-.384-19.872-1.792 13.6 41.568 52.192 72.128 98.08 73.12-35.712 27.936-81.056 44.768-130.144 44.768-8.608 0-16.864-.384-25.12-1.44C46.496 446.88 101.6 464 161.024 464c193.152 0 298.752-160 298.752-298.688 0-4.64-.16-9.12-.384-13.568 20.832-14.784 38.336-33.248 52.608-54.496z"></path>
		</symbol>
	
</svg>
